<?xml version="1.0" encoding="utf-8"?>
<!-- Generator: Adobe Illustrator 15.1.0, SVG Export Plug-In . SVG Version: 6.00 Build 0)  -->
<!DOCTYPE svg PUBLIC "-//W3C//DTD SVG 1.1//EN" "http://www.w3.org/Graphics/SVG/1.1/DTD/svg11.dtd">
<svg version="1.1" id="Layer_1" xmlns="http://www.w3.org/2000/svg" xmlns:xlink="http://www.w3.org/1999/xlink" x="0px" y="0px"
	 width="552px" height="500px" viewBox="0 0 552 500" enable-background="new 0 0 552 500" xml:space="preserve">
<rect x="185.5" y="284.5" fill="#FFFFFF" stroke="#000000" stroke-miterlimit="10" width="180" height="184"/>
<rect x="21.5" y="17.5" fill="#FFFFFF" stroke="#000000" stroke-miterlimit="10" width="117" height="119"/>
<rect x="221.5" y="17.5" fill="#FFFFFF" stroke="#000000" stroke-miterlimit="10" width="116" height="119"/>
<rect x="412.5" y="17.5" fill="#FFFFFF" stroke="#000000" stroke-miterlimit="10" width="118" height="119"/>
<text transform="matrix(1 0 0 1 224.8447 337.498)" font-family="'LucidaGrande'" font-size="45.8051">node</text>
<text transform="matrix(1 0 0 1 225.7178 363.5723)" font-family="'LucidaGrande'" font-size="23.8178">geometry</text>
<text transform="matrix(1 0 0 1 229.8955 443)" fill="#666666" font-family="'LucidaGrande'" font-size="32.7646">layer 1</text>
<text transform="matrix(1 0 0 1 51.0537 128.3125)" fill="#666666" font-family="'LucidaGrande'" font-size="21.388">layer 1</text>
<text transform="matrix(1 0 0 1 249.5615 128.3125)" fill="#666666" font-family="'LucidaGrande'" font-size="21.388">layer 2</text>
<text transform="matrix(1 0 0 1 442.2539 128.3125)" fill="#666666" font-family="'LucidaGrande'" font-size="21.388">layer 3</text>
<text transform="matrix(1 0 0 1 52.4517 50.7217)" font-family="'LucidaGrande'" font-size="29.9006">data</text>
<text transform="matrix(1 0 0 1 250.958 50.7217)" font-family="'LucidaGrande'" font-size="29.9006">data</text>
<text transform="matrix(1 0 0 1 443.6504 50.7217)" font-family="'LucidaGrande'" font-size="29.9006">data</text>
<g>
	<g>
		<line fill="none" stroke="#000000" stroke-miterlimit="10" x1="172.249" y1="260.442" x2="106.365" y2="160.44"/>
		<g>
			<polygon points="102.481,154.544 111.35,160.616 106.656,160.881 104.561,165.089 			"/>
		</g>
	</g>
</g>
<g>
	<g>
		<line fill="none" stroke="#000000" stroke-miterlimit="10" x1="278.5" y1="260" x2="278.5" y2="163"/>
		<g>
			<polygon points="278.146,155.79 282.212,165.739 278.146,163.378 274.082,165.739 			"/>
		</g>
	</g>
</g>
<g>
	<g>
		<line fill="none" stroke="#000000" stroke-miterlimit="10" x1="374.077" y1="266.672" x2="460.578" y2="160.028"/>
		<g>
			<polygon points="465.025,154.544 461.915,164.833 460.245,160.438 455.602,159.711 			"/>
		</g>
	</g>
</g>
</svg>
